<svg width="16" height="16" viewBox="0 0 16 16" fill="none" xmlns="http://www.w3.org/2000/svg">
<path d="M2.87481 12.5748C4.19559 11.4149 6.00451 10.6998 7.99981 10.6998C9.99511 10.6998 11.804 11.4149 13.1248 12.5748M15.1998 7.9998C15.1998 11.9763 11.9763 15.1998 7.9998 15.1998C4.02335 15.1998 0.799805 11.9763 0.799805 7.9998C0.799805 4.02335 4.02335 0.799805 7.9998 0.799805C11.9763 0.799805 15.1998 4.02335 15.1998 7.9998ZM9.7998 6.1998C9.7998 7.19392 8.99392 7.9998 7.9998 7.9998C7.00569 7.9998 6.1998 7.19392 6.1998 6.1998C6.1998 5.20569 7.00569 4.3998 7.9998 4.3998C8.99392 4.3998 9.7998 5.20569 9.7998 6.1998Z" stroke="#4A4A4A" stroke-width="1.4" stroke-linecap="round"/>
</svg>
