<svg width="18" height="18" viewBox="0 0 18 18" fill="none" xmlns="http://www.w3.org/2000/svg">
<path d="M12.5731 13.527C12.6349 13.5933 12.7095 13.6465 12.7923 13.6834C12.8751 13.7203 12.9644 13.7401 13.0551 13.7417C13.1457 13.7433 13.2357 13.7267 13.3198 13.6927C13.4038 13.6588 13.4802 13.6082 13.5443 13.5441C13.6084 13.48 13.6589 13.4037 13.6928 13.3196C13.7268 13.2356 13.7435 13.1456 13.7419 13.0549C13.7403 12.9643 13.7204 12.8749 13.6835 12.7921C13.6466 12.7093 13.5935 12.6348 13.5271 12.573L9.95414 9L13.5271 5.427C13.6464 5.29904 13.7113 5.1298 13.7082 4.95493C13.7051 4.78006 13.6343 4.61321 13.5106 4.48954C13.3869 4.36587 13.2201 4.29503 13.0452 4.29194C12.8703 4.28886 12.7011 4.35377 12.5731 4.473L9.00014 8.046L5.42714 4.473C5.29918 4.35377 5.12994 4.28886 4.95507 4.29194C4.7802 4.29503 4.61335 4.36587 4.48968 4.48954C4.36601 4.61321 4.29517 4.78006 4.29208 4.95493C4.289 5.1298 4.35391 5.29904 4.47314 5.427L8.04614 9L4.47314 12.573C4.40682 12.6348 4.35363 12.7093 4.31674 12.7921C4.27984 12.8749 4.26 12.9643 4.25841 13.0549C4.25681 13.1456 4.27348 13.2356 4.30743 13.3196C4.34138 13.4037 4.39191 13.48 4.456 13.5441C4.5201 13.6082 4.59645 13.6588 4.6805 13.6927C4.76455 13.7267 4.85458 13.7433 4.94521 13.7417C5.03584 13.7401 5.12522 13.7203 5.20802 13.6834C5.29082 13.6465 5.36534 13.5933 5.42714 13.527L9.00014 9.954L12.5731 13.527Z" fill="#4A4A4A"/>
</svg>
