<svg width="16" height="16" viewBox="0 0 16 16" fill="none" xmlns="http://www.w3.org/2000/svg">
<path d="M10.6958 3.14785L12.488 1.3557C12.724 1.11971 13.1066 1.11971 13.3426 1.3557L14.7658 2.77897C15.0018 3.01495 15.0018 3.39757 14.7658 3.63355L12.9737 5.4257M10.6958 3.14785L12.9737 5.4257M10.6958 3.14785L4.19288 9.65081M12.9737 5.4257L6.47073 11.9287M4.19288 9.65081L3.20562 10.6381C3.14868 10.695 3.1037 10.7628 3.07331 10.8373L1.55273 14.5688L5.28422 13.0482C5.35879 13.0178 5.42653 12.9729 5.48347 12.9159L6.47073 11.9287M4.19288 9.65081L6.47073 11.9287" stroke="#4A4A4A" stroke-width="1.4" stroke-linecap="round" stroke-linejoin="round"/>
</svg>
